<svg id="svg" version="1.1" xmlns="http://www.w3.org/2000/svg" xmlns:xlink="http://www.w3.org/1999/xlink" width="400" height="400" viewBox="0, 0, 400,400"><g id="svgg"><path id="path0" d="M10.128 32.789 C 11.080 34.190,11.111 43.735,10.168 45.211 L 9.536 46.200 10.368 45.256 C 11.664 43.784,11.632 33.702,10.328 32.562 L 9.455 31.800 10.128 32.789 M389.462 32.731 C 388.360 33.949,388.496 43.967,389.632 45.256 L 390.464 46.200 389.832 45.211 C 388.924 43.790,388.917 34.182,389.823 32.889 C 390.576 31.813,390.373 31.724,389.462 32.731 M55.949 33.062 C 55.015 34.189,55.179 44.160,56.147 45.086 C 56.868 45.776,56.878 45.770,56.447 44.926 C 55.879 43.817,55.853 34.222,56.414 33.174 C 56.922 32.225,56.689 32.170,55.949 33.062 M343.553 33.074 C 343.813 33.581,344.000 36.067,344.000 39.000 C 344.000 41.933,343.813 44.419,343.553 44.926 C 343.122 45.770,343.132 45.776,343.853 45.086 C 344.510 44.458,344.600 43.723,344.600 39.001 C 344.600 34.279,344.510 33.543,343.853 32.915 C 343.132 32.224,343.122 32.230,343.553 33.074 M154.668 133.766 C 154.549 134.078,153.225 135.010,151.726 135.839 C 140.489 142.052,133.243 146.553,124.174 152.952 C 121.407 154.904,121.404 154.203,124.198 160.000 C 126.097 163.941,128.282 167.938,129.008 168.800 C 129.286 169.130,129.645 170.210,129.807 171.200 C 129.968 172.190,130.287 173.450,130.515 174.000 C 130.743 174.550,130.900 175.135,130.865 175.300 C 130.829 175.465,130.980 175.600,131.200 175.600 C 131.420 175.600,131.600 176.104,131.600 176.720 C 131.600 177.336,131.749 178.011,131.930 178.220 C 132.112 178.429,132.508 179.410,132.811 180.400 C 133.645 183.133,138.482 193.600,140.770 197.624 C 141.887 199.587,142.800 201.339,142.800 201.517 C 142.800 201.695,143.025 202.065,143.300 202.340 C 143.575 202.615,143.816 202.966,143.835 203.120 C 143.854 203.274,143.987 203.670,144.130 204.000 C 144.787 205.508,146.085 209.516,146.268 210.600 C 146.380 211.260,146.736 212.790,147.060 214.000 C 147.384 215.210,147.726 216.560,147.820 217.000 C 147.913 217.440,148.270 219.060,148.613 220.600 C 148.956 222.140,149.324 223.940,149.430 224.600 C 149.536 225.260,149.726 226.250,149.853 226.800 C 149.980 227.350,150.244 228.880,150.438 230.200 C 150.633 231.520,150.982 233.590,151.214 234.800 C 151.658 237.111,152.205 240.315,152.786 244.000 C 153.795 250.395,152.429 249.778,165.910 249.923 C 173.888 250.009,177.467 250.185,177.661 250.499 C 178.424 251.733,177.983 271.581,177.184 272.008 C 176.684 272.276,172.418 272.384,165.230 272.312 L 154.054 272.200 153.401 273.305 C 152.621 274.627,150.752 280.000,151.073 280.000 C 151.197 280.000,151.076 280.268,150.804 280.595 C 150.533 280.922,150.408 281.445,150.528 281.756 C 150.647 282.067,150.622 282.444,150.472 282.594 C 150.323 282.744,150.184 282.987,150.165 283.133 C 150.146 283.280,149.998 283.701,149.835 284.069 C 149.672 284.437,149.489 284.977,149.430 285.269 C 149.370 285.561,149.195 286.088,149.041 286.440 C 148.886 286.792,148.798 287.242,148.845 287.440 C 148.891 287.638,148.717 288.315,148.457 288.945 C 148.198 289.575,148.020 290.295,148.063 290.545 C 148.105 290.795,147.917 291.784,147.643 292.742 C 147.370 293.700,147.238 294.723,147.351 295.016 C 147.463 295.309,147.389 295.605,147.185 295.674 C 146.830 295.795,145.873 300.550,145.385 304.616 C 145.257 305.682,145.081 306.668,144.995 306.807 C 144.909 306.947,144.725 308.484,144.585 310.224 C 144.445 311.964,144.249 313.520,144.150 313.681 C 143.953 314.000,143.661 318.201,143.536 322.500 C 143.493 323.985,143.319 325.200,143.150 325.200 C 142.980 325.200,142.847 326.317,142.854 327.681 C 142.871 331.289,144.750 332.789,146.486 330.581 L 147.287 329.563 164.744 329.609 C 176.946 329.641,182.170 329.526,182.100 329.227 C 182.045 328.992,182.202 328.845,182.448 328.900 C 182.861 328.992,183.782 327.778,184.800 325.800 C 185.027 325.360,185.543 324.460,185.947 323.800 C 186.352 323.140,186.611 322.404,186.523 322.164 C 186.435 321.924,186.642 321.497,186.982 321.215 C 187.322 320.933,187.600 320.274,187.600 319.751 C 187.600 319.228,187.780 318.800,188.000 318.800 C 188.220 318.800,188.400 318.350,188.400 317.800 C 188.400 317.250,188.580 316.800,188.800 316.800 C 189.020 316.800,189.200 316.350,189.200 315.800 C 189.200 315.250,189.380 314.800,189.600 314.800 C 189.820 314.800,190.003 314.485,190.006 314.100 C 190.009 313.715,190.276 312.642,190.599 311.715 C 190.922 310.788,191.071 309.708,190.929 309.315 C 190.788 308.922,190.826 308.740,191.014 308.912 C 191.395 309.259,192.320 306.044,192.233 304.676 C 192.202 304.194,192.342 303.684,192.544 303.542 C 192.746 303.400,192.990 302.502,193.085 301.547 C 193.181 300.592,193.405 299.718,193.583 299.605 C 193.761 299.492,193.917 298.644,193.928 297.721 C 193.940 296.798,194.143 295.680,194.380 295.237 C 194.617 294.795,194.787 294.290,194.758 294.116 C 194.729 293.942,194.727 293.305,194.753 292.700 L 194.800 291.600 200.000 291.600 C 205.494 291.600,205.363 291.551,205.266 293.585 C 205.241 294.127,205.459 295.387,205.751 296.385 C 206.043 297.383,206.209 298.409,206.120 298.663 C 206.031 298.918,206.147 299.244,206.379 299.387 C 206.610 299.530,206.800 300.357,206.800 301.224 C 206.800 302.091,206.942 302.800,207.115 302.800 C 207.288 302.800,207.460 303.115,207.497 303.500 C 207.566 304.224,207.808 305.655,208.240 307.896 C 208.377 308.609,208.614 309.115,208.766 309.021 C 208.918 308.927,209.061 309.492,209.083 310.278 C 209.106 311.063,209.277 311.817,209.463 311.953 C 209.650 312.089,209.864 312.725,209.939 313.366 C 210.013 314.007,210.338 314.795,210.660 315.117 C 210.982 315.440,211.151 315.950,211.036 316.252 C 210.920 316.553,210.999 316.800,211.213 316.800 C 211.426 316.800,211.600 317.340,211.600 318.000 C 211.600 318.660,211.791 319.200,212.024 319.200 C 212.257 319.200,212.336 319.380,212.200 319.600 C 212.064 319.820,212.143 320.000,212.376 320.000 C 212.609 320.000,212.771 320.135,212.736 320.300 C 212.592 320.985,214.418 324.800,214.891 324.800 C 215.061 324.800,215.200 325.160,215.200 325.600 C 215.200 326.040,215.365 326.400,215.567 326.400 C 215.769 326.400,216.264 327.075,216.667 327.900 C 217.070 328.725,217.670 329.424,218.000 329.454 C 218.330 329.483,226.101 329.528,235.269 329.554 L 251.939 329.600 253.127 330.600 C 254.589 331.830,254.996 331.843,256.123 330.700 C 257.027 329.784,257.659 325.200,256.882 325.200 C 256.695 325.200,256.508 323.985,256.467 322.500 C 256.347 318.177,256.047 314.341,255.675 312.370 C 255.485 311.363,255.389 310.148,255.462 309.670 C 255.535 309.191,255.448 308.800,255.267 308.800 C 255.087 308.800,254.928 308.215,254.914 307.500 C 254.880 305.794,254.440 302.359,254.158 301.600 C 254.036 301.270,253.856 300.211,253.759 299.247 C 253.661 298.282,253.455 297.292,253.301 297.047 C 253.146 296.801,253.069 296.301,253.129 295.935 C 253.189 295.570,253.058 295.159,252.837 295.023 C 252.616 294.886,252.537 294.508,252.662 294.182 C 252.787 293.856,252.667 293.322,252.396 292.995 C 252.124 292.668,252.036 292.400,252.200 292.400 C 252.364 292.400,252.297 292.158,252.052 291.863 C 251.807 291.568,251.718 291.216,251.853 291.080 C 251.988 290.945,251.957 290.512,251.784 290.117 C 251.611 289.723,251.431 289.265,251.385 289.100 C 251.338 288.935,251.263 288.755,251.218 288.700 C 251.172 288.645,251.076 288.150,251.004 287.600 C 250.751 285.668,250.317 283.794,249.974 283.153 C 249.784 282.797,249.742 282.392,249.881 282.253 C 250.020 282.114,249.923 282.000,249.667 282.000 C 249.410 282.000,249.200 281.460,249.200 280.800 C 249.200 280.140,249.009 279.600,248.776 279.600 C 248.543 279.600,248.451 279.441,248.571 279.247 C 248.811 278.858,247.634 275.254,246.680 273.461 L 246.074 272.321 232.437 272.261 C 221.972 272.214,218.801 272.313,218.800 272.686 C 218.799 274.183,212.602 274.602,211.200 273.200 C 210.430 272.430,209.867 272.400,196.049 272.400 C 179.151 272.400,180.730 272.989,180.886 266.743 L 181.000 262.200 182.997 262.000 C 184.505 261.849,185.026 261.624,185.130 261.081 C 185.355 259.895,184.398 259.100,183.065 259.367 C 181.109 259.758,180.800 259.140,180.800 254.831 C 180.800 249.552,179.367 250.000,196.231 250.000 C 208.606 250.000,210.774 249.913,211.200 249.400 C 211.566 248.959,212.537 248.800,214.862 248.800 C 217.305 248.800,218.078 248.937,218.255 249.400 C 218.453 249.916,220.291 250.000,231.417 250.000 C 244.666 250.000,246.551 249.811,246.335 248.500 C 246.272 248.115,246.354 247.587,246.518 247.326 C 246.917 246.689,247.704 241.466,247.757 239.100 C 247.781 238.055,247.927 237.200,248.082 237.200 C 248.237 237.200,248.469 236.525,248.597 235.700 C 249.023 232.958,249.649 229.420,249.994 227.800 C 250.632 224.805,251.211 221.802,251.344 220.800 C 251.417 220.250,251.575 219.530,251.695 219.200 C 251.947 218.506,252.780 214.578,252.925 213.400 C 252.979 212.960,253.131 212.420,253.262 212.200 C 253.393 211.980,253.838 210.453,254.250 208.808 C 254.696 207.028,256.099 203.704,257.711 200.608 C 260.983 194.324,264.075 187.970,264.167 187.340 C 264.205 187.088,264.423 186.638,264.653 186.340 C 264.883 186.043,265.657 184.270,266.374 182.400 C 267.090 180.530,267.828 178.640,268.013 178.200 C 268.291 177.539,268.767 176.113,269.015 175.200 C 269.045 175.090,269.167 174.730,269.287 174.400 C 269.407 174.070,269.720 172.990,269.983 172.000 C 270.246 171.010,270.744 169.660,271.091 169.000 C 275.826 159.988,277.149 157.283,276.929 157.062 C 276.785 156.918,276.848 156.800,277.069 156.800 C 277.458 156.800,278.400 155.116,278.400 154.420 C 278.400 154.232,277.844 153.884,277.164 153.647 C 276.484 153.410,274.639 152.252,273.064 151.073 C 268.311 147.516,256.852 140.485,249.354 136.526 C 247.569 135.584,245.882 134.540,245.605 134.206 C 245.050 133.538,244.000 133.385,244.000 133.973 C 244.000 134.178,243.603 134.472,243.118 134.626 C 241.053 135.281,230.091 147.257,229.893 149.073 C 229.822 149.726,228.895 150.338,227.364 150.745 C 225.236 151.310,219.210 152.800,219.050 152.800 C 218.435 152.800,217.620 156.519,217.427 160.210 C 216.998 168.418,213.922 173.406,207.412 176.453 C 195.363 182.092,183.248 174.074,182.550 160.000 C 182.362 156.204,181.537 152.753,180.847 152.881 C 180.711 152.906,180.330 152.812,180.000 152.671 C 179.670 152.530,177.553 151.972,175.296 151.431 C 171.656 150.560,169.867 149.731,170.022 148.987 C 170.072 148.745,169.758 148.282,167.222 144.860 C 165.407 142.410,161.158 137.600,160.808 137.600 C 160.657 137.600,159.753 136.880,158.800 136.000 C 157.847 135.120,156.846 134.400,156.576 134.400 C 156.306 134.400,155.982 134.130,155.855 133.800 C 155.565 133.043,154.953 133.026,154.668 133.766 M160.610 375.202 C 159.516 375.398,157.986 375.825,157.210 376.151 C 156.435 376.476,155.305 376.848,154.700 376.979 C 153.825 377.167,153.600 377.440,153.600 378.312 C 153.600 379.731,152.017 384.651,150.442 388.130 C 148.105 393.294,147.478 397.807,148.867 399.480 C 149.209 399.893,153.026 400.000,167.336 400.000 L 185.375 400.000 186.287 398.938 C 187.265 397.800,187.620 393.907,186.793 393.396 C 186.570 393.258,186.491 392.977,186.617 392.772 C 186.744 392.568,186.695 392.400,186.509 392.400 C 186.323 392.400,186.142 392.029,186.108 391.576 C 186.074 391.123,185.303 389.399,184.395 387.745 C 182.820 384.874,180.800 379.364,180.800 377.938 C 180.800 376.588,180.339 376.000,179.454 376.222 C 178.979 376.341,177.873 376.132,176.995 375.758 C 175.142 374.967,164.021 374.589,160.610 375.202 M224.519 375.197 C 223.594 375.392,222.458 375.755,221.995 376.003 C 221.532 376.250,220.634 376.339,220.000 376.200 C 218.816 375.940,217.846 377.979,218.584 379.174 C 218.729 379.408,218.665 379.600,218.442 379.600 C 218.219 379.600,217.916 380.275,217.770 381.100 C 217.623 381.925,216.467 384.670,215.201 387.200 C 211.744 394.106,211.203 398.317,213.606 399.603 C 214.064 399.849,221.131 400.000,232.128 400.000 L 249.908 400.000 250.554 399.014 C 251.851 397.035,251.065 392.935,248.097 386.200 C 247.224 384.220,246.387 381.925,246.237 381.100 C 246.087 380.275,245.837 379.600,245.682 379.600 C 245.527 379.600,245.400 378.925,245.400 378.100 C 245.400 376.874,245.268 376.622,244.676 376.723 C 244.278 376.791,242.838 376.447,241.476 375.959 C 238.728 374.975,227.881 374.488,224.519 375.197 " stroke="none" fill="#4280b5" fill-rule="evenodd"></path><path id="path1" d="M82.000 26.696 C 81.670 26.825,81.162 27.216,80.870 27.565 C 80.460 28.057,80.410 28.064,80.647 27.600 C 80.894 27.116,80.841 27.091,80.371 27.471 C 80.040 27.739,79.041 27.870,78.059 27.776 C 76.189 27.595,74.800 28.105,74.800 28.971 C 74.800 29.270,74.530 29.618,74.200 29.745 C 73.870 29.871,73.600 29.825,73.600 29.642 C 73.600 29.459,72.880 29.309,72.000 29.309 C 70.797 29.309,70.398 29.469,70.394 29.955 C 70.389 30.478,70.322 30.496,70.038 30.047 C 69.003 28.414,68.419 31.302,69.210 34.143 C 70.359 38.271,71.809 39.283,74.124 37.571 C 75.251 36.738,75.368 36.727,76.418 37.347 C 77.899 38.222,78.877 38.170,80.180 37.145 L 81.267 36.289 82.111 37.134 C 83.159 38.181,83.422 38.002,78.302 39.734 C 70.739 42.293,66.400 44.946,66.966 46.666 C 67.181 47.320,68.331 48.837,70.174 50.900 C 70.518 51.285,70.800 51.757,70.800 51.949 C 70.800 52.141,71.427 52.834,72.194 53.489 C 72.960 54.143,73.475 54.792,73.336 54.930 C 73.198 55.068,73.380 55.294,73.740 55.432 C 74.101 55.571,74.295 55.846,74.172 56.045 C 74.050 56.243,74.213 56.507,74.535 56.631 C 74.858 56.754,75.237 57.473,75.379 58.228 C 75.520 58.982,75.791 59.600,75.981 59.600 C 76.170 59.600,76.231 59.961,76.115 60.402 C 76.000 60.843,76.118 61.460,76.377 61.772 C 76.668 62.123,76.755 62.960,76.605 63.970 C 76.471 64.866,76.525 65.600,76.725 65.600 C 76.925 65.600,77.003 66.050,76.898 66.600 C 76.793 67.150,76.888 67.600,77.108 67.600 C 77.329 67.600,77.468 68.223,77.417 68.985 C 77.366 69.747,77.474 70.278,77.656 70.165 C 77.839 70.052,77.878 70.509,77.744 71.180 C 77.577 72.016,77.656 72.400,77.997 72.400 C 78.312 72.400,78.409 72.723,78.262 73.285 C 78.119 73.830,78.294 74.472,78.715 74.954 C 79.092 75.385,79.175 75.606,78.900 75.445 C 78.625 75.284,78.400 75.343,78.400 75.576 C 78.400 75.809,78.599 76.000,78.843 76.000 C 79.086 76.000,79.188 76.255,79.069 76.566 C 78.822 77.209,80.002 81.200,80.439 81.200 C 80.596 81.200,80.624 81.588,80.500 82.063 C 80.332 82.705,80.408 82.842,80.799 82.601 C 81.149 82.384,81.227 82.432,81.034 82.745 C 80.874 83.003,81.116 83.818,81.572 84.555 C 82.027 85.291,82.400 86.188,82.400 86.547 C 82.400 86.906,82.574 87.200,82.787 87.200 C 83.001 87.200,83.080 87.447,82.964 87.748 C 82.849 88.050,83.031 88.403,83.370 88.533 C 83.726 88.670,83.887 89.029,83.750 89.385 C 83.621 89.723,83.691 90.000,83.907 90.000 C 84.123 90.000,84.400 90.495,84.523 91.100 C 84.645 91.705,85.121 92.602,85.581 93.092 C 86.041 93.583,86.413 94.078,86.408 94.192 C 86.376 95.008,86.500 95.266,87.300 96.043 C 87.795 96.524,87.930 96.788,87.600 96.629 C 87.137 96.407,87.146 96.462,87.640 96.870 C 87.992 97.162,88.326 97.580,88.383 97.800 C 88.649 98.834,90.059 101.200,90.408 101.200 C 90.624 101.200,90.771 101.335,90.736 101.500 C 90.600 102.143,91.306 103.181,91.710 102.932 C 91.977 102.767,92.041 102.917,91.881 103.334 C 91.740 103.700,91.810 104.000,92.036 104.000 C 92.262 104.000,92.348 104.161,92.226 104.358 C 92.104 104.555,92.285 104.824,92.628 104.955 C 92.970 105.087,93.139 105.376,93.002 105.597 C 92.865 105.819,92.899 106.000,93.079 106.000 C 93.258 106.000,93.644 106.541,93.937 107.202 C 94.255 107.921,94.656 108.297,94.935 108.138 C 95.191 107.992,95.273 108.013,95.117 108.185 C 94.732 108.613,96.082 111.173,97.375 112.466 C 97.956 113.047,98.507 113.919,98.601 114.404 C 98.694 114.889,99.271 115.942,99.882 116.743 C 100.493 117.544,100.934 118.270,100.862 118.355 C 100.791 118.441,100.931 118.634,101.175 118.785 C 101.419 118.935,101.702 119.496,101.805 120.029 C 101.907 120.563,102.263 121.200,102.595 121.444 C 102.928 121.688,103.200 122.093,103.200 122.344 C 103.200 122.595,103.391 122.800,103.624 122.800 C 103.857 122.800,103.949 122.960,103.828 123.155 C 103.707 123.350,103.875 123.730,104.200 124.000 C 104.525 124.270,104.693 124.650,104.572 124.845 C 104.451 125.040,104.526 125.200,104.737 125.200 C 104.949 125.200,105.310 125.740,105.540 126.400 C 105.770 127.060,106.158 127.600,106.403 127.600 C 106.647 127.600,106.745 127.765,106.621 127.966 C 106.497 128.167,106.563 128.392,106.768 128.466 C 106.972 128.540,107.198 128.869,107.270 129.199 C 107.341 129.528,107.670 130.036,108.000 130.328 C 108.533 130.800,108.533 130.831,108.000 130.600 C 107.670 130.457,107.760 130.632,108.200 130.988 C 108.640 131.343,108.942 131.672,108.872 131.717 C 108.573 131.910,109.619 134.000,110.014 134.000 C 110.252 134.000,110.343 134.169,110.215 134.375 C 110.088 134.582,110.268 134.910,110.617 135.105 C 110.965 135.300,111.295 135.716,111.350 136.030 C 111.602 137.478,112.094 138.389,112.491 138.144 C 112.739 137.991,112.809 138.062,112.655 138.311 C 112.508 138.549,112.840 139.233,113.393 139.831 C 113.947 140.428,114.400 141.256,114.400 141.671 C 114.400 142.086,114.669 142.528,114.998 142.654 C 115.326 142.781,115.527 143.000,115.443 143.142 C 115.245 143.479,116.483 145.758,117.000 146.007 C 117.220 146.113,117.375 146.423,117.345 146.696 C 117.315 146.968,117.450 147.093,117.645 146.972 C 117.840 146.851,118.022 146.943,118.050 147.176 C 118.225 148.655,118.842 150.021,119.229 149.782 C 119.564 149.575,119.770 150.124,119.647 150.900 C 119.621 151.065,119.817 151.155,120.081 151.100 C 120.346 151.045,120.572 151.270,120.583 151.600 C 120.660 153.894,121.606 153.963,124.359 151.875 C 129.726 147.804,139.471 141.704,148.800 136.578 C 154.172 133.626,154.582 133.301,153.928 132.513 C 153.694 132.231,153.629 132.000,153.785 132.000 C 153.940 132.000,153.497 131.280,152.800 130.400 C 152.103 129.520,151.278 128.800,150.966 128.800 C 150.655 128.800,150.400 128.523,150.400 128.185 C 150.400 127.344,140.001 116.752,139.487 117.070 C 139.258 117.212,139.197 117.129,139.349 116.882 C 139.500 116.638,139.215 116.223,138.711 115.955 C 138.210 115.688,137.562 115.184,137.270 114.835 C 136.954 114.456,136.858 114.427,137.032 114.762 C 137.225 115.134,137.166 115.226,136.855 115.034 C 136.598 114.875,136.473 114.605,136.579 114.434 C 136.685 114.262,136.238 113.611,135.586 112.986 C 134.934 112.362,134.400 111.981,134.400 112.141 C 134.400 112.301,134.149 112.199,133.842 111.916 C 133.535 111.632,133.356 111.281,133.444 111.135 C 133.532 110.989,133.076 110.635,132.431 110.350 C 131.786 110.064,131.329 109.716,131.415 109.575 C 131.502 109.435,131.096 109.068,130.514 108.760 C 129.931 108.452,128.653 107.345,127.673 106.300 C 126.693 105.255,125.679 104.400,125.421 104.400 C 124.713 104.400,123.148 102.808,123.421 102.366 C 123.552 102.154,123.511 102.030,123.330 102.090 C 123.148 102.151,123.000 102.084,123.000 101.942 C 123.000 101.800,122.712 101.350,122.360 100.942 C 122.009 100.534,121.383 99.360,120.969 98.333 C 120.556 97.306,120.059 96.563,119.866 96.683 C 119.672 96.802,119.636 96.518,119.784 96.050 C 119.941 95.557,119.880 95.200,119.640 95.200 C 119.412 95.200,119.329 94.930,119.455 94.600 C 119.582 94.270,119.492 94.000,119.255 94.000 C 119.019 94.000,118.929 93.730,119.055 93.400 C 119.182 93.070,119.092 92.800,118.855 92.800 C 118.618 92.800,118.540 92.501,118.681 92.134 C 118.860 91.667,118.787 91.561,118.435 91.778 C 118.094 91.989,117.969 91.851,118.041 91.344 C 118.201 90.223,117.593 88.000,117.125 88.000 C 116.899 88.000,116.818 87.730,116.945 87.400 C 117.071 87.070,117.024 86.800,116.839 86.800 C 116.654 86.800,116.388 86.086,116.249 85.213 C 116.109 84.341,115.753 83.401,115.458 83.125 C 115.163 82.849,114.999 82.325,115.095 81.960 C 115.190 81.594,115.010 81.054,114.695 80.760 C 114.379 80.465,114.205 79.903,114.307 79.512 C 114.410 79.120,114.292 78.800,114.047 78.800 C 113.801 78.800,113.630 78.665,113.666 78.500 C 113.803 77.870,113.100 76.015,112.795 76.203 C 112.619 76.312,112.569 76.041,112.684 75.601 C 112.801 75.153,112.696 74.800,112.447 74.800 C 112.201 74.800,112.036 74.665,112.079 74.500 C 112.228 73.937,111.547 72.400,111.149 72.400 C 110.931 72.400,110.864 72.220,111.000 72.000 C 111.136 71.780,111.057 71.600,110.824 71.600 C 110.591 71.600,110.400 71.169,110.400 70.643 C 110.400 70.116,110.115 69.576,109.767 69.443 C 109.418 69.309,109.213 68.975,109.310 68.700 C 109.543 68.042,107.315 63.600,106.751 63.600 C 106.511 63.600,106.416 63.335,106.540 63.012 C 106.664 62.688,106.536 62.193,106.254 61.912 C 105.731 61.388,105.600 61.089,105.600 60.418 C 105.600 60.208,105.182 59.618,104.670 59.107 C 104.159 58.596,103.814 57.957,103.904 57.689 C 103.993 57.420,103.861 57.200,103.610 57.200 C 103.358 57.200,103.255 57.035,103.380 56.832 C 103.505 56.630,103.323 56.180,102.975 55.832 C 102.627 55.485,102.480 55.200,102.648 55.200 C 102.816 55.200,102.621 54.957,102.215 54.661 C 101.810 54.364,101.598 53.926,101.746 53.688 C 101.893 53.450,101.652 53.001,101.209 52.691 C 100.767 52.382,100.524 52.009,100.669 51.864 C 100.814 51.719,100.723 51.600,100.467 51.600 C 100.210 51.600,100.000 51.150,100.000 50.600 C 100.000 50.050,100.166 49.600,100.369 49.600 C 100.984 49.600,103.217 47.551,102.995 47.191 C 102.880 47.006,102.946 46.757,103.141 46.637 C 103.852 46.197,103.140 40.620,101.928 37.146 C 100.926 34.274,100.803 33.542,101.195 32.809 C 101.792 31.694,101.165 30.029,99.477 28.248 C 98.826 27.562,98.439 27.270,98.616 27.600 C 98.814 27.969,98.580 27.892,98.010 27.400 C 97.434 26.903,97.024 26.769,96.926 27.046 C 96.840 27.291,96.281 27.435,95.685 27.367 C 95.034 27.292,94.199 27.568,93.600 28.055 C 93.050 28.503,92.870 28.735,93.200 28.571 C 93.530 28.406,93.660 28.426,93.488 28.614 C 92.889 29.272,91.991 29.123,91.391 28.265 C 90.782 27.396,87.349 26.870,87.879 27.727 C 88.007 27.934,87.861 28.015,87.556 27.906 C 87.250 27.797,86.640 27.888,86.200 28.108 C 85.760 28.328,85.534 28.365,85.697 28.190 C 86.086 27.775,84.520 26.678,83.999 27.000 C 83.780 27.136,83.600 27.057,83.600 26.824 C 83.600 26.369,82.970 26.319,82.000 26.696 M316.400 26.787 C 316.400 27.001,316.144 27.077,315.831 26.956 C 315.504 26.831,315.071 27.094,314.814 27.574 C 314.464 28.228,314.208 28.325,313.636 28.019 C 313.234 27.804,312.792 27.742,312.653 27.881 C 312.514 28.020,312.400 27.952,312.400 27.731 C 312.400 26.997,309.649 27.384,308.978 28.213 C 308.628 28.646,308.458 28.730,308.601 28.400 C 308.744 28.070,308.487 28.225,308.030 28.744 C 307.285 29.592,307.014 29.578,307.153 28.700 C 307.179 28.535,306.949 28.400,306.643 28.400 C 306.336 28.400,305.982 28.130,305.855 27.800 C 305.729 27.470,305.429 27.200,305.189 27.200 C 304.949 27.200,304.884 27.425,305.045 27.700 C 305.206 27.975,304.953 27.863,304.484 27.451 C 303.903 26.942,303.401 26.807,302.915 27.029 C 302.522 27.208,301.990 27.367,301.734 27.382 C 300.216 27.474,298.063 31.423,298.790 32.781 C 299.162 33.476,299.048 34.174,298.182 36.518 C 297.596 38.103,296.965 40.750,296.779 42.400 C 296.593 44.050,296.387 45.760,296.321 46.200 C 296.246 46.695,296.402 46.958,296.730 46.890 C 297.021 46.830,297.145 46.965,297.006 47.190 C 296.867 47.416,296.973 47.600,297.243 47.600 C 297.513 47.600,297.612 47.721,297.463 47.870 C 297.164 48.169,299.207 49.643,299.592 49.405 C 300.026 49.137,299.974 50.949,299.532 51.482 C 299.296 51.767,299.254 52.000,299.440 52.000 C 299.626 52.000,299.385 52.275,298.906 52.611 C 298.405 52.962,298.129 53.471,298.258 53.808 C 298.384 54.136,298.202 54.501,297.844 54.639 C 297.492 54.773,297.304 55.045,297.426 55.242 C 297.548 55.439,297.446 55.600,297.200 55.600 C 296.954 55.600,296.864 55.780,297.000 56.000 C 297.136 56.220,297.046 56.400,296.800 56.400 C 296.554 56.400,296.464 56.580,296.600 56.800 C 296.736 57.020,296.642 57.200,296.390 57.200 C 296.139 57.200,296.007 57.420,296.096 57.689 C 296.186 57.957,295.829 58.607,295.304 59.133 C 294.778 59.658,294.448 60.348,294.570 60.665 C 294.691 60.982,294.618 61.135,294.407 61.004 C 294.196 60.874,293.898 61.268,293.744 61.880 C 293.591 62.491,293.224 63.233,292.929 63.528 C 292.634 63.823,292.495 64.230,292.620 64.432 C 292.745 64.635,292.662 64.800,292.436 64.800 C 292.210 64.800,292.140 65.100,292.281 65.466 C 292.452 65.913,292.383 66.036,292.068 65.842 C 291.610 65.559,291.429 66.042,291.579 67.140 C 291.620 67.437,291.461 67.562,291.227 67.417 C 290.807 67.157,290.633 67.674,290.779 68.740 C 290.820 69.037,290.667 69.165,290.438 69.024 C 290.205 68.879,289.915 69.256,289.775 69.884 C 289.282 72.095,289.136 72.408,288.719 72.150 C 288.477 72.001,288.375 72.125,288.480 72.441 C 288.581 72.744,288.423 73.234,288.128 73.529 C 287.834 73.823,287.695 74.230,287.820 74.432 C 287.945 74.635,287.887 74.800,287.691 74.800 C 287.221 74.800,286.364 77.619,286.679 78.128 C 286.814 78.345,286.733 78.406,286.501 78.262 C 286.032 77.973,285.076 80.276,285.428 80.846 C 285.549 81.041,285.437 81.200,285.181 81.200 C 284.924 81.200,284.818 81.470,284.945 81.800 C 285.071 82.130,284.981 82.400,284.745 82.400 C 284.508 82.400,284.418 82.670,284.545 83.000 C 284.671 83.330,284.581 83.600,284.345 83.600 C 284.108 83.600,284.018 83.870,284.145 84.200 C 284.271 84.530,284.181 84.800,283.945 84.800 C 283.708 84.800,283.614 85.058,283.735 85.374 C 283.856 85.690,283.790 86.005,283.589 86.074 C 283.388 86.143,283.173 86.650,283.112 87.200 C 283.050 87.750,282.847 88.311,282.661 88.448 C 282.474 88.584,282.294 89.169,282.261 89.747 C 282.227 90.326,282.044 90.800,281.853 90.800 C 281.663 90.800,281.601 91.160,281.716 91.601 C 281.842 92.083,281.764 92.301,281.520 92.150 C 281.263 91.992,281.219 92.229,281.400 92.800 C 281.595 93.413,281.545 93.613,281.243 93.426 C 280.963 93.254,280.800 93.530,280.800 94.176 C 280.800 94.739,280.609 95.200,280.376 95.200 C 280.143 95.200,280.065 95.381,280.202 95.603 C 280.339 95.825,280.163 96.294,279.812 96.645 C 279.439 97.018,279.273 97.600,279.413 98.042 C 279.546 98.459,279.474 98.800,279.254 98.800 C 278.854 98.800,278.171 100.335,278.321 100.900 C 278.364 101.065,278.183 101.155,277.918 101.100 C 277.653 101.045,277.420 101.270,277.400 101.600 C 277.380 101.930,277.133 102.151,276.852 102.090 C 276.571 102.030,276.432 102.128,276.544 102.309 C 276.804 102.730,276.506 103.122,274.809 104.600 C 273.973 105.328,273.643 105.485,273.971 105.000 C 274.268 104.560,273.725 105.010,272.765 106.000 C 271.804 106.990,270.411 108.175,269.669 108.634 C 268.927 109.093,268.338 109.588,268.360 109.734 C 268.382 109.880,268.338 109.955,268.261 109.900 C 267.922 109.655,266.836 110.934,267.066 111.307 C 267.208 111.536,267.134 111.607,266.903 111.463 C 266.671 111.320,265.379 112.283,264.031 113.602 C 262.683 114.921,261.432 116.000,261.252 116.000 C 261.072 116.000,260.581 116.391,260.162 116.869 C 259.743 117.347,259.653 117.589,259.962 117.407 C 260.344 117.182,260.431 117.226,260.234 117.545 C 260.075 117.802,259.813 117.932,259.652 117.832 C 259.491 117.733,257.388 119.648,254.980 122.089 C 252.571 124.530,250.870 126.373,251.200 126.186 C 251.530 125.999,250.810 126.794,249.600 127.953 C 248.390 129.112,247.670 129.936,248.000 129.783 C 248.330 129.631,248.060 129.996,247.400 130.595 C 246.740 131.195,246.245 131.846,246.300 132.042 C 246.355 132.239,246.220 132.400,246.000 132.400 C 244.657 132.400,246.084 133.789,249.100 135.416 C 258.098 140.273,267.133 145.865,276.343 152.279 C 278.623 153.867,279.600 153.633,279.600 151.500 C 279.600 151.089,279.780 150.864,280.000 151.000 C 280.352 151.217,280.464 150.966,280.373 150.164 C 280.359 150.034,280.674 149.660,281.073 149.334 C 281.509 148.978,281.560 148.844,281.200 149.000 C 280.807 149.170,280.842 149.061,281.300 148.686 C 281.685 148.370,282.000 147.984,282.000 147.827 C 282.000 147.671,282.270 147.273,282.600 146.943 C 282.930 146.613,283.200 146.005,283.200 145.591 C 283.200 145.178,283.473 144.687,283.808 144.500 C 284.142 144.313,284.498 143.728,284.600 143.200 C 284.702 142.672,285.062 142.085,285.401 141.896 C 285.740 141.706,285.912 141.381,285.783 141.173 C 285.654 140.965,285.830 140.687,286.172 140.555 C 286.515 140.424,286.696 140.155,286.574 139.958 C 286.452 139.761,286.554 139.600,286.800 139.600 C 287.046 139.600,287.145 139.435,287.021 139.234 C 286.897 139.033,286.938 138.808,287.112 138.734 C 287.898 138.401,289.185 136.026,288.933 135.371 C 288.754 134.902,288.815 134.762,289.117 134.949 C 289.550 135.216,291.462 132.170,291.281 131.500 C 291.236 131.335,291.391 131.200,291.624 131.200 C 291.857 131.200,291.936 131.020,291.800 130.800 C 291.664 130.580,291.754 130.400,292.000 130.400 C 292.246 130.400,292.348 130.239,292.226 130.042 C 292.104 129.845,292.285 129.576,292.628 129.445 C 292.970 129.313,293.139 129.024,293.002 128.803 C 292.865 128.581,292.954 128.400,293.200 128.400 C 293.446 128.400,293.548 128.239,293.426 128.042 C 293.304 127.845,293.485 127.576,293.828 127.445 C 294.170 127.313,294.339 127.024,294.202 126.803 C 294.065 126.581,294.143 126.400,294.376 126.400 C 294.609 126.400,294.800 126.130,294.800 125.800 C 294.800 125.470,294.951 125.200,295.135 125.200 C 295.319 125.200,295.972 124.206,296.587 122.991 C 297.201 121.777,297.864 120.684,298.059 120.564 C 298.254 120.443,298.322 120.198,298.211 120.018 C 298.100 119.838,298.275 119.470,298.600 119.200 C 298.925 118.930,299.104 118.569,298.998 118.397 C 298.892 118.225,299.085 117.976,299.428 117.845 C 299.770 117.713,299.939 117.424,299.802 117.203 C 299.665 116.981,299.754 116.800,300.000 116.800 C 300.246 116.800,300.336 116.620,300.200 116.400 C 300.064 116.180,300.173 116.000,300.443 116.000 C 300.713 116.000,300.832 115.899,300.709 115.775 C 300.585 115.652,300.912 115.089,301.434 114.525 C 301.957 113.961,302.288 113.342,302.169 113.150 C 302.050 112.957,302.143 112.800,302.376 112.800 C 302.609 112.800,302.800 112.530,302.800 112.200 C 302.800 111.870,302.991 111.600,303.224 111.600 C 303.457 111.600,303.536 111.420,303.400 111.200 C 303.264 110.980,303.347 110.800,303.585 110.800 C 303.823 110.800,304.236 110.305,304.504 109.700 C 304.772 109.095,305.200 108.380,305.456 108.111 C 306.673 106.831,307.834 104.506,307.969 103.076 C 307.986 102.898,308.180 102.864,308.400 103.000 C 308.620 103.136,308.800 103.026,308.800 102.755 C 308.800 102.484,309.115 101.903,309.500 101.463 C 310.017 100.871,310.043 100.742,309.600 100.966 C 309.270 101.133,309.450 100.898,310.000 100.444 C 310.550 99.989,310.820 99.608,310.600 99.597 C 310.380 99.585,310.519 99.390,310.908 99.163 C 311.298 98.936,311.512 98.582,311.385 98.375 C 311.257 98.169,311.331 98.000,311.549 98.000 C 311.986 98.000,312.624 96.434,312.446 95.800 C 312.384 95.580,312.468 95.535,312.633 95.700 C 312.970 96.037,315.600 91.512,315.600 90.593 C 315.600 90.267,315.799 90.000,316.043 90.000 C 316.286 90.000,316.379 89.723,316.250 89.385 C 316.113 89.029,316.274 88.670,316.630 88.533 C 316.969 88.403,317.151 88.050,317.036 87.748 C 316.920 87.447,316.985 87.200,317.182 87.200 C 317.554 87.200,318.630 84.437,318.475 83.879 C 318.426 83.702,318.659 83.284,318.993 82.950 C 319.571 82.372,319.772 81.598,319.630 80.500 C 319.594 80.225,319.772 80.000,320.025 80.000 C 320.278 80.000,320.382 79.730,320.255 79.400 C 320.129 79.070,320.176 78.800,320.361 78.800 C 320.664 78.800,321.305 76.320,321.394 74.800 C 321.414 74.469,321.573 73.967,321.749 73.682 C 321.925 73.398,322.134 72.409,322.214 71.483 C 322.294 70.557,322.390 69.710,322.426 69.600 C 322.462 69.490,322.460 69.085,322.421 68.700 C 322.382 68.315,322.560 68.000,322.817 68.000 C 323.121 68.000,323.231 67.440,323.131 66.400 C 323.048 65.520,323.074 64.800,323.189 64.800 C 323.389 64.800,323.601 62.980,323.738 60.100 C 323.772 59.385,323.906 58.800,324.036 58.800 C 324.336 58.800,325.364 56.703,325.266 56.289 C 325.226 56.118,325.464 55.873,325.796 55.746 C 326.128 55.619,326.402 55.309,326.404 55.057 C 326.406 54.806,326.946 54.175,327.604 53.655 C 328.262 53.135,328.800 52.460,328.800 52.155 C 328.800 51.850,328.970 51.600,329.179 51.600 C 329.628 51.600,332.400 47.520,332.400 46.859 C 332.400 46.606,332.572 46.400,332.781 46.400 C 332.991 46.400,332.859 45.871,332.488 45.224 C 331.668 43.795,325.950 40.968,320.711 39.401 C 316.810 38.235,316.279 37.820,317.799 37.128 C 318.658 36.736,319.044 36.771,319.983 37.326 C 321.414 38.171,322.182 38.174,323.597 37.338 C 324.663 36.708,324.769 36.718,325.812 37.538 C 327.915 39.192,329.562 38.278,330.741 34.800 C 331.151 33.590,331.621 32.285,331.786 31.900 C 332.003 31.394,331.901 31.200,331.419 31.200 C 331.053 31.200,330.859 31.028,330.989 30.817 C 331.368 30.205,329.165 29.393,327.139 29.396 C 326.116 29.398,325.361 29.265,325.463 29.100 C 325.564 28.935,325.356 28.800,325.000 28.800 C 324.608 28.800,324.467 28.616,324.642 28.332 C 324.836 28.017,324.713 27.948,324.266 28.119 C 323.900 28.260,323.600 28.223,323.600 28.037 C 323.600 27.852,323.150 27.700,322.600 27.700 C 322.050 27.700,321.600 27.838,321.600 28.007 C 321.600 28.176,321.321 28.422,320.979 28.553 C 320.638 28.684,320.458 28.629,320.580 28.432 C 320.703 28.234,320.025 27.696,319.075 27.236 C 317.186 26.322,316.400 26.190,316.400 26.787 M93.757 34.233 C 94.188 35.356,94.016 36.400,93.400 36.400 C 92.981 36.400,92.800 35.978,92.800 35.000 C 92.800 33.551,93.332 33.125,93.757 34.233 M307.374 34.700 C 306.909 36.822,306.838 36.929,306.225 36.420 C 305.787 36.057,305.752 35.684,306.069 34.775 C 306.609 33.226,307.711 33.162,307.374 34.700 M313.630 36.910 C 313.581 37.388,313.032 37.296,312.860 36.780 C 312.772 36.516,312.916 36.372,313.180 36.460 C 313.444 36.548,313.647 36.751,313.630 36.910 M203.300 37.491 C 204.125 37.578,205.475 37.578,206.300 37.491 C 207.125 37.405,206.450 37.334,204.800 37.334 C 203.150 37.334,202.475 37.405,203.300 37.491 M236.999 48.923 C 238.319 50.175,239.480 51.200,239.578 51.200 C 239.919 51.200,236.995 48.327,235.800 47.488 C 235.140 47.024,235.680 47.670,236.999 48.923 M181.600 70.355 C 181.600 70.771,181.162 72.621,180.627 74.468 C 176.707 87.996,170.925 93.943,159.500 96.198 L 158.400 96.415 158.400 100.046 C 158.400 102.699,158.223 103.977,157.741 104.792 L 157.082 105.908 156.241 105.034 C 155.778 104.554,155.625 104.454,155.900 104.812 C 156.221 105.229,156.400 106.851,156.400 109.331 C 156.400 111.459,156.553 113.200,156.741 113.200 C 156.929 113.200,157.015 114.653,156.932 116.429 C 156.833 118.559,156.921 119.572,157.191 119.406 C 157.417 119.266,157.571 119.476,157.536 119.877 C 157.385 121.611,157.626 123.231,158.000 123.000 C 158.365 122.774,158.600 123.654,158.422 124.577 C 158.287 125.271,160.097 129.796,160.635 130.111 C 160.930 130.283,161.055 130.713,160.915 131.076 C 160.747 131.515,160.819 131.636,161.132 131.442 C 161.389 131.283,161.623 131.343,161.650 131.576 C 161.678 131.809,161.745 132.180,161.800 132.400 C 161.855 132.620,161.923 132.991,161.950 133.224 C 161.978 133.457,162.161 133.548,162.357 133.426 C 162.554 133.305,162.827 133.654,162.965 134.203 C 163.103 134.751,163.402 135.200,163.631 135.200 C 163.860 135.200,163.933 135.385,163.793 135.611 C 163.653 135.837,164.093 136.539,164.770 137.172 C 165.446 137.804,166.000 138.519,166.000 138.760 C 166.000 139.002,166.180 139.200,166.400 139.200 C 166.620 139.200,166.755 139.364,166.700 139.564 C 166.645 139.764,167.217 140.484,167.972 141.164 C 168.727 141.844,169.190 142.400,169.002 142.400 C 168.814 142.400,169.078 142.844,169.588 143.388 C 170.099 143.931,170.661 144.286,170.838 144.176 C 171.015 144.067,171.355 144.343,171.594 144.789 C 171.833 145.235,172.302 145.600,172.638 145.600 C 172.973 145.600,173.148 145.760,173.027 145.956 C 172.906 146.152,173.277 146.621,173.853 146.998 C 174.428 147.375,174.766 147.468,174.603 147.205 C 174.441 146.943,175.049 147.218,175.954 147.817 C 177.345 148.737,178.407 149.746,177.200 149.000 C 176.980 148.864,176.800 148.849,176.800 148.966 C 176.800 149.343,179.090 150.377,179.349 150.117 C 179.487 149.979,179.600 150.087,179.600 150.357 C 179.600 150.627,179.780 150.736,180.000 150.600 C 180.220 150.464,180.400 150.554,180.400 150.800 C 180.400 151.046,180.584 151.133,180.810 150.994 C 181.035 150.855,181.194 150.889,181.163 151.070 C 181.007 151.963,181.282 152.810,182.135 154.067 C 182.912 155.211,183.112 156.153,183.315 159.622 C 183.951 170.523,190.191 177.200,199.742 177.200 C 209.835 177.200,215.972 170.895,216.658 159.822 C 216.885 156.170,217.085 155.216,217.865 154.066 C 218.718 152.810,218.993 151.963,218.837 151.070 C 218.806 150.889,218.965 150.855,219.190 150.994 C 219.416 151.133,219.600 151.046,219.600 150.800 C 219.600 150.554,219.780 150.464,220.000 150.600 C 220.220 150.736,220.400 150.646,220.400 150.400 C 220.400 150.154,220.548 150.044,220.728 150.156 C 221.168 150.428,223.600 148.926,223.600 148.382 C 223.600 148.146,223.761 148.052,223.958 148.174 C 224.155 148.296,224.424 148.115,224.555 147.772 C 224.687 147.430,224.936 147.237,225.108 147.343 C 225.281 147.450,225.867 147.176,226.411 146.734 C 226.955 146.292,227.147 146.064,226.838 146.227 C 226.468 146.423,226.374 146.366,226.562 146.062 C 226.719 145.808,227.100 145.600,227.410 145.600 C 227.719 145.600,228.167 145.235,228.406 144.789 C 228.645 144.343,228.985 144.067,229.162 144.176 C 229.339 144.286,229.901 143.931,230.412 143.388 C 230.922 142.844,231.185 142.400,230.997 142.400 C 230.809 142.400,231.362 141.748,232.227 140.952 C 233.092 140.156,233.530 139.637,233.200 139.799 C 232.870 139.961,233.123 139.623,233.762 139.047 C 234.401 138.471,234.786 138.000,234.618 138.000 C 234.449 138.000,234.684 137.685,235.139 137.300 C 235.594 136.915,236.019 136.334,236.083 136.010 C 236.147 135.685,236.380 135.212,236.600 134.959 C 237.349 134.096,238.200 132.769,238.250 132.384 C 238.278 132.173,238.322 131.809,238.350 131.576 C 238.378 131.343,238.611 131.283,238.868 131.442 C 239.185 131.638,239.252 131.511,239.075 131.050 C 238.911 130.623,239.042 130.282,239.430 130.133 C 239.769 130.003,239.951 129.650,239.836 129.348 C 239.720 129.047,239.785 128.800,239.980 128.800 C 240.339 128.800,241.686 125.194,241.569 124.548 C 241.402 123.636,241.641 122.778,242.000 123.000 C 242.374 123.231,242.615 121.611,242.464 119.877 C 242.429 119.476,242.583 119.266,242.809 119.406 C 243.079 119.572,243.167 118.559,243.068 116.429 C 242.985 114.653,243.071 113.200,243.259 113.200 C 243.994 113.200,243.554 110.686,242.600 109.436 C 241.643 108.180,241.600 107.884,241.600 102.486 C 241.600 95.734,242.377 96.387,233.863 95.974 C 206.008 94.619,187.978 86.166,183.537 72.379 C 182.699 69.777,181.600 68.629,181.600 70.355 M148.140 76.800 C 148.140 78.670,148.209 79.435,148.293 78.500 C 148.377 77.565,148.377 76.035,148.293 75.100 C 148.209 74.165,148.140 74.930,148.140 76.800 M250.893 75.200 C 250.893 75.970,250.975 76.285,251.076 75.900 C 251.176 75.515,251.176 74.885,251.076 74.500 C 250.975 74.115,250.893 74.430,250.893 75.200 M251.693 83.600 C 251.693 84.370,251.775 84.685,251.876 84.300 C 251.976 83.915,251.976 83.285,251.876 82.900 C 251.775 82.515,251.693 82.830,251.693 83.600 M182.092 104.386 C 186.568 107.908,181.912 114.843,176.834 112.218 C 173.933 110.717,173.734 106.152,176.487 104.224 C 177.770 103.326,180.857 103.415,182.092 104.386 M223.609 104.407 C 225.126 105.486,225.805 107.568,225.219 109.341 C 223.299 115.159,214.607 112.625,216.365 106.760 C 217.229 103.876,221.099 102.619,223.609 104.407 M208.164 122.316 C 207.988 130.770,193.339 131.342,191.765 122.956 C 191.272 120.325,191.112 120.372,200.091 120.492 L 208.200 120.600 208.164 122.316 M216.194 137.346 C 216.850 137.826,216.881 138.039,216.444 139.094 C 212.712 148.104,187.288 148.104,183.556 139.094 C 182.617 136.826,182.806 136.800,200.000 136.800 C 212.425 136.800,215.593 136.907,216.194 137.346 M218.100 329.865 C 217.825 329.976,217.600 330.412,217.600 330.833 C 217.600 331.255,217.441 331.600,217.247 331.600 C 217.053 331.600,216.884 332.333,216.872 333.229 C 216.859 334.125,216.670 335.074,216.452 335.337 C 216.233 335.601,216.088 337.641,216.130 339.872 C 216.171 342.102,216.069 343.843,215.902 343.740 C 215.736 343.637,215.600 343.833,215.600 344.176 C 215.600 344.519,215.780 344.800,216.000 344.800 C 216.220 344.800,216.400 345.160,216.400 345.600 C 216.400 346.040,216.220 346.400,216.000 346.400 C 215.780 346.400,215.600 346.681,215.600 347.024 C 215.600 347.367,215.745 347.558,215.922 347.448 C 216.099 347.339,216.187 349.218,216.117 351.625 C 216.048 354.031,216.148 356.000,216.340 356.000 C 216.533 356.000,216.620 356.630,216.535 357.400 C 216.451 358.170,216.533 358.800,216.719 358.800 C 216.906 358.800,216.986 359.700,216.898 360.800 C 216.811 361.900,216.888 362.800,217.069 362.800 C 217.251 362.800,217.422 363.295,217.448 363.900 C 217.582 366.970,217.909 369.300,218.239 369.536 C 218.441 369.681,218.606 370.775,218.604 371.967 C 218.601 373.353,218.781 374.194,219.102 374.301 C 219.379 374.393,219.502 374.634,219.377 374.837 C 218.907 375.597,220.441 375.650,222.287 374.938 C 225.364 373.751,238.532 373.868,241.600 375.109 C 243.967 376.067,245.600 376.258,245.600 375.576 C 245.600 375.343,245.422 375.263,245.205 375.397 C 244.594 375.774,245.223 374.272,245.907 373.718 C 246.252 373.440,246.412 372.888,246.287 372.411 C 246.168 371.957,246.314 371.343,246.612 371.045 C 246.909 370.748,247.059 370.148,246.945 369.712 C 246.828 369.263,247.028 368.629,247.408 368.249 C 247.776 367.881,247.978 367.320,247.856 367.003 C 247.735 366.685,247.810 366.317,248.024 366.185 C 248.238 366.053,248.309 365.777,248.183 365.572 C 248.056 365.368,248.149 365.200,248.389 365.200 C 248.640 365.200,248.784 364.596,248.729 363.775 C 248.672 362.922,248.849 362.217,249.171 362.018 C 249.522 361.801,249.618 361.325,249.447 360.643 C 249.286 360.002,249.351 359.600,249.616 359.600 C 249.853 359.600,249.924 359.400,249.772 359.155 C 249.621 358.911,249.695 358.589,249.936 358.440 C 250.177 358.291,250.412 357.546,250.458 356.784 C 250.504 356.023,250.710 355.177,250.915 354.905 C 251.121 354.633,251.176 353.958,251.037 353.405 C 250.884 352.797,250.955 352.400,251.216 352.400 C 251.453 352.400,251.531 352.212,251.389 351.982 C 251.247 351.753,251.343 351.309,251.603 350.996 C 251.889 350.652,251.986 349.791,251.849 348.814 C 251.706 347.787,251.780 347.200,252.055 347.200 C 252.292 347.200,252.386 346.942,252.265 346.626 C 252.144 346.310,252.192 345.995,252.371 345.926 C 253.207 345.603,253.801 331.390,253.000 330.863 C 252.780 330.718,245.220 330.506,236.200 330.392 C 227.180 330.277,219.530 330.067,219.200 329.923 C 218.870 329.780,218.375 329.754,218.100 329.865 M162.026 330.305 C 144.232 330.430,145.600 330.017,145.600 335.262 C 145.600 337.208,145.735 338.800,145.900 338.800 C 146.065 338.800,146.253 340.279,146.317 342.087 C 146.381 343.895,146.561 345.470,146.717 345.587 C 146.873 345.704,147.053 346.790,147.118 348.000 C 147.182 349.210,147.407 350.260,147.617 350.333 C 147.827 350.406,147.883 350.928,147.741 351.493 C 147.562 352.206,147.622 352.434,147.937 352.239 C 148.227 352.059,148.306 352.178,148.156 352.569 C 147.879 353.292,149.240 359.622,149.622 359.386 C 149.766 359.297,149.796 359.688,149.687 360.255 C 149.570 360.867,149.705 361.418,150.019 361.612 C 150.310 361.792,150.569 362.447,150.594 363.069 C 150.667 364.873,151.625 368.800,151.991 368.800 C 152.175 368.800,152.231 369.160,152.116 369.600 C 152.001 370.040,152.084 370.400,152.301 370.400 C 152.518 370.400,152.792 371.249,152.909 372.287 C 153.026 373.325,153.320 374.240,153.563 374.321 C 153.806 374.402,153.902 374.634,153.777 374.837 C 153.095 375.941,154.766 376.433,156.388 375.606 C 159.830 373.850,174.087 373.390,177.081 374.938 C 178.859 375.858,179.816 375.789,179.895 374.736 C 179.931 374.261,180.167 373.744,180.420 373.588 C 180.693 373.419,180.800 372.717,180.684 371.852 C 180.576 371.053,180.659 370.400,180.868 370.400 C 181.076 370.400,181.136 370.220,181.000 370.000 C 180.864 369.780,180.968 369.600,181.232 369.600 C 181.572 369.600,181.643 369.019,181.475 367.600 C 181.344 366.500,181.379 365.600,181.552 365.600 C 181.946 365.600,182.070 364.809,182.129 361.900 C 182.154 360.635,182.305 359.600,182.463 359.600 C 182.811 359.600,182.844 359.278,183.016 354.200 C 183.090 352.000,183.183 350.110,183.223 350.000 C 183.418 349.457,183.421 340.400,183.226 340.399 C 183.102 340.399,183.000 338.929,183.000 337.133 C 183.000 335.053,182.835 333.812,182.546 333.715 C 182.278 333.626,182.166 333.020,182.272 332.235 C 182.566 330.053,183.623 330.154,162.026 330.305 " stroke="none" fill="#fada5c" fill-rule="evenodd"></path><path id="path2" d="M13.618 1.822 C 11.893 3.435,10.446 5.636,10.246 6.951 C 10.208 7.198,10.003 7.670,9.790 8.000 C 9.571 8.338,9.340 13.623,9.260 20.110 L 9.119 31.621 10.159 32.440 C 11.746 33.688,11.777 43.653,10.200 45.527 L 9.200 46.715 9.200 56.425 C 9.200 67.902,9.527 70.272,11.575 73.659 C 15.930 80.863,26.982 81.555,31.786 74.924 C 33.298 72.838,33.188 72.835,34.733 75.026 C 38.527 80.409,48.066 80.953,53.083 76.071 C 54.599 74.597,56.762 71.200,56.185 71.200 C 56.059 71.200,56.235 70.800,56.577 70.311 C 57.727 68.669,57.485 46.870,56.300 45.364 C 55.470 44.309,55.400 43.810,55.400 38.943 C 55.400 34.021,55.461 33.601,56.300 32.707 C 57.190 31.759,57.200 31.622,57.200 20.289 C 57.200 6.709,56.997 5.744,53.365 2.112 L 51.252 0.000 44.562 0.000 L 37.872 0.000 35.604 2.300 L 33.336 4.600 31.068 2.300 L 28.800 0.000 22.183 -0.000 L 15.566 -0.000 13.618 1.822 M347.328 1.382 C 345.745 2.738,344.049 5.025,343.825 6.106 C 343.769 6.378,343.515 7.107,343.261 7.726 C 342.273 10.138,342.650 31.588,343.700 32.707 C 344.539 33.601,344.600 34.021,344.600 38.943 C 344.600 43.810,344.530 44.309,343.700 45.364 C 342.530 46.851,342.302 67.537,343.420 70.748 C 346.705 80.179,358.302 82.688,364.749 75.363 C 365.657 74.331,366.400 73.306,366.400 73.084 C 366.400 72.862,366.909 73.382,367.531 74.240 C 374.279 83.544,388.263 80.106,390.365 68.627 C 390.604 67.321,390.800 61.857,390.800 56.484 L 390.800 46.715 389.800 45.527 C 388.229 43.660,388.254 33.688,389.832 32.446 L 390.865 31.634 390.709 20.117 C 390.524 6.353,389.893 3.975,385.647 1.032 C 381.773 -1.652,370.780 -0.310,368.012 3.185 L 366.794 4.723 364.621 2.462 L 362.449 0.200 355.725 0.075 L 349.000 -0.049 347.328 1.382 M177.644 104.958 C 175.439 106.180,175.037 108.698,176.769 110.431 C 178.615 112.276,181.007 111.907,182.204 109.592 C 183.691 106.717,180.436 103.411,177.644 104.958 M219.600 104.914 C 217.063 106.175,216.870 109.795,219.273 111.038 C 222.640 112.779,225.864 108.777,223.300 106.038 C 221.941 104.586,220.898 104.269,219.600 104.914 M211.260 249.328 C 210.427 250.332,210.607 272.870,211.453 273.488 C 212.241 274.065,217.094 274.182,217.941 273.645 C 218.496 273.293,218.729 250.056,218.186 249.177 C 217.815 248.577,211.774 248.708,211.260 249.328 M190.000 259.200 C 188.917 260.283,188.994 261.446,190.200 262.237 C 192.329 263.632,194.396 260.483,192.311 259.023 C 191.167 258.221,190.963 258.237,190.000 259.200 M161.220 259.376 C 160.214 260.588,160.863 262.200,162.356 262.200 C 164.079 262.200,164.749 261.284,164.087 259.831 C 163.557 258.669,162.011 258.423,161.220 259.376 M168.253 259.646 C 167.428 260.823,167.986 262.164,169.367 262.329 C 171.339 262.564,172.325 260.782,170.971 259.429 C 170.096 258.553,168.954 258.645,168.253 259.646 M175.381 259.773 C 174.491 261.131,175.211 262.499,176.723 262.324 C 177.882 262.190,178.232 261.380,177.828 259.768 C 177.509 258.498,176.215 258.501,175.381 259.773 M197.028 259.681 C 196.502 260.433,196.491 260.684,196.953 261.381 C 197.990 262.947,200.000 262.452,200.000 260.631 C 200.000 258.782,198.086 258.171,197.028 259.681 M204.250 259.407 C 203.491 260.166,203.448 260.569,204.014 261.626 C 204.621 262.760,206.718 262.677,207.175 261.500 C 207.893 259.648,205.629 258.028,204.250 259.407 M144.093 312.400 C 144.093 313.170,144.175 313.485,144.276 313.100 C 144.376 312.715,144.376 312.085,144.276 311.700 C 144.175 311.315,144.093 311.630,144.093 312.400 M143.324 321.000 C 143.326 322.320,143.401 322.812,143.490 322.093 C 143.579 321.374,143.577 320.294,143.486 319.693 C 143.395 319.092,143.322 319.680,143.324 321.000 M256.514 321.400 C 256.517 322.500,256.595 322.903,256.687 322.295 C 256.779 321.686,256.777 320.786,256.682 320.295 C 256.587 319.803,256.511 320.300,256.514 321.400 M256.060 330.642 C 255.762 330.978,255.599 331.332,255.695 331.429 C 255.792 331.526,256.198 331.244,256.598 330.802 C 256.997 330.361,257.161 330.007,256.962 330.015 C 256.763 330.024,256.357 330.305,256.060 330.642 " stroke="none" fill="#2c2b32" fill-rule="evenodd"></path><path id="path3" d="M148.114 81.800 C 148.117 82.900,148.195 83.303,148.287 82.695 C 148.379 82.086,148.377 81.186,148.282 80.695 C 148.187 80.203,148.111 80.700,148.114 81.800 M251.693 81.200 C 251.693 81.970,251.775 82.285,251.876 81.900 C 251.976 81.515,251.976 80.885,251.876 80.500 C 251.775 80.115,251.693 80.430,251.693 81.200 M177.206 104.301 C 173.192 106.314,174.637 112.400,179.129 112.400 C 183.753 112.400,185.229 105.941,181.009 104.178 C 179.244 103.441,178.898 103.452,177.206 104.301 M219.731 103.871 C 217.331 104.358,215.812 107.703,216.971 109.945 C 218.822 113.524,224.307 112.833,225.040 108.929 C 225.621 105.833,222.888 103.230,219.731 103.871 M181.126 105.399 C 182.636 106.670,182.995 108.064,182.204 109.592 C 181.007 111.907,178.615 112.276,176.769 110.431 C 173.704 107.366,177.817 102.615,181.126 105.399 M223.300 106.038 C 224.600 107.427,224.663 108.163,223.628 109.862 C 221.443 113.445,216.053 110.491,217.933 106.741 C 219.209 104.197,221.318 103.920,223.300 106.038 M192.139 121.415 C 191.078 124.179,195.997 128.800,200.000 128.800 C 204.003 128.800,208.922 124.179,207.861 121.415 C 207.507 120.492,192.493 120.492,192.139 121.415 M184.000 138.462 C 184.000 140.914,188.713 144.019,193.600 144.786 C 204.449 146.489,216.000 143.228,216.000 138.462 L 216.000 137.600 200.000 137.600 L 184.000 137.600 184.000 138.462 M153.843 250.633 C 153.709 250.981,153.600 256.011,153.600 261.810 L 153.600 272.355 165.109 272.388 C 179.154 272.428,178.068 272.885,177.914 266.995 L 177.800 262.600 176.700 262.473 C 174.410 262.210,174.570 259.058,176.890 258.729 C 178.137 258.552,178.529 251.376,177.340 250.507 C 176.192 249.667,154.168 249.785,153.843 250.633 M181.280 250.480 C 180.973 250.787,180.800 252.354,180.800 254.831 C 180.800 259.140,181.109 259.758,183.065 259.367 C 184.398 259.100,185.355 259.895,185.130 261.081 C 185.026 261.624,184.505 261.849,182.997 262.000 L 181.000 262.200 180.888 266.841 C 180.739 272.984,179.183 272.430,196.247 272.305 L 210.600 272.200 210.706 261.100 L 210.813 250.000 196.286 250.000 C 185.521 250.000,181.636 250.124,181.280 250.480 M218.643 250.633 C 218.155 251.904,218.372 271.412,218.880 271.920 C 219.410 272.450,243.335 272.561,245.200 272.042 L 246.200 271.764 246.313 261.782 C 246.374 256.292,246.326 251.395,246.205 250.900 L 245.985 250.000 232.435 250.000 C 220.449 250.000,218.858 250.073,218.643 250.633 M192.311 259.023 C 194.396 260.483,192.329 263.632,190.200 262.237 C 188.994 261.446,188.917 260.283,190.000 259.200 C 190.963 258.237,191.167 258.221,192.311 259.023 M164.087 259.831 C 164.749 261.284,164.079 262.200,162.356 262.200 C 161.167 262.200,160.984 262.062,160.871 261.076 C 160.611 258.811,163.171 257.820,164.087 259.831 M170.971 259.429 C 172.325 260.782,171.339 262.564,169.367 262.329 C 167.986 262.164,167.428 260.823,168.253 259.646 C 168.954 258.645,170.096 258.553,170.971 259.429 M199.520 259.280 C 200.178 259.938,200.123 261.400,199.419 261.984 C 198.640 262.631,197.615 262.380,196.953 261.381 C 195.919 259.821,198.196 257.956,199.520 259.280 M207.016 259.800 C 207.814 261.058,207.097 262.400,205.627 262.400 C 203.826 262.400,203.016 260.641,204.250 259.407 C 205.074 258.583,206.359 258.765,207.016 259.800 M253.314 333.800 C 253.317 334.900,253.395 335.303,253.487 334.695 C 253.579 334.086,253.577 333.186,253.482 332.695 C 253.387 332.203,253.311 332.700,253.314 333.800 " stroke="none" fill="#c36b4c" fill-rule="evenodd"></path><path id="path4" d="M3.711 32.164 C 3.002 32.422,1.877 33.036,1.211 33.529 L -0.000 34.424 -0.000 38.865 C -0.000 43.850,0.145 44.139,3.400 45.643 C 8.919 48.193,10.800 46.477,10.800 38.892 C 10.800 31.687,9.200 30.168,3.711 32.164 M56.616 32.769 C 55.745 34.453,55.741 43.539,56.610 45.220 L 57.221 46.400 61.836 46.400 L 66.452 46.400 67.480 45.178 C 68.793 43.617,72.837 41.583,78.302 39.734 C 83.422 38.002,83.159 38.181,82.111 37.134 L 81.267 36.289 80.180 37.145 C 78.877 38.170,77.899 38.222,76.418 37.347 C 75.368 36.727,75.251 36.738,74.124 37.571 C 71.846 39.256,70.326 38.241,69.272 34.332 L 68.589 31.800 62.910 31.689 L 57.232 31.578 56.616 32.769 M101.358 32.609 C 100.728 33.570,100.755 33.782,101.948 37.116 C 102.779 39.438,103.200 41.361,103.200 42.831 C 103.200 46.795,99.782 46.442,136.603 46.284 C 175.107 46.119,176.651 46.009,182.084 43.058 C 195.876 35.567,210.712 35.361,225.200 42.461 C 234.007 46.777,230.170 46.400,265.273 46.400 L 296.020 46.400 296.410 45.374 C 296.624 44.810,296.800 43.483,296.800 42.427 C 296.800 41.297,297.309 39.074,298.033 37.033 C 299.196 33.761,299.230 33.505,298.624 32.581 L 297.982 31.600 200.000 31.600 L 102.018 31.600 101.358 32.609 M331.583 32.431 C 331.338 32.889,330.877 34.142,330.558 35.216 C 329.653 38.264,327.854 39.144,325.812 37.538 C 324.769 36.718,324.663 36.708,323.597 37.338 C 322.182 38.174,321.414 38.171,319.983 37.326 C 319.044 36.771,318.658 36.736,317.799 37.128 C 316.279 37.820,316.810 38.235,320.711 39.401 C 325.950 40.968,331.668 43.795,332.488 45.224 L 333.163 46.400 337.971 46.400 L 342.779 46.400 343.390 45.220 C 343.842 44.345,344.000 42.735,344.000 39.000 C 344.000 35.265,343.842 33.655,343.390 32.780 L 342.779 31.600 337.404 31.600 C 332.370 31.600,332.000 31.653,331.583 32.431 M390.029 32.654 C 388.887 34.106,388.782 43.369,389.886 45.238 C 391.084 47.266,396.256 46.629,399.100 44.105 C 399.931 43.367,400.000 42.967,400.000 38.873 L 400.000 34.441 398.700 33.500 C 395.680 31.315,391.410 30.899,390.029 32.654 M92.800 35.000 C 92.800 35.978,92.981 36.400,93.400 36.400 C 94.016 36.400,94.188 35.356,93.757 34.233 C 93.332 33.125,92.800 33.551,92.800 35.000 M306.069 34.775 C 305.752 35.684,305.787 36.057,306.225 36.420 C 306.838 36.929,306.909 36.822,307.374 34.700 C 307.711 33.162,306.609 33.226,306.069 34.775 M312.860 36.780 C 313.032 37.296,313.581 37.388,313.630 36.910 C 313.647 36.751,313.444 36.548,313.180 36.460 C 312.916 36.372,312.772 36.516,312.860 36.780 M153.933 133.510 C 153.860 133.681,151.550 135.059,148.800 136.573 C 138.798 142.079,126.409 149.945,123.000 152.954 C 120.321 155.319,122.067 154.566,126.148 151.597 C 131.808 147.479,137.779 143.727,146.600 138.745 C 153.855 134.647,154.800 134.055,154.800 133.610 C 154.800 133.132,154.129 133.055,153.933 133.510 M245.418 134.019 C 245.825 134.470,247.608 135.604,249.380 136.539 C 256.833 140.476,268.317 147.520,273.031 151.049 C 275.768 153.096,278.008 154.289,277.993 153.690 C 277.968 152.726,261.932 142.540,250.056 135.945 C 244.653 132.945,244.320 132.807,245.418 134.019 M181.713 154.200 C 182.047 154.895,182.388 157.253,182.522 159.800 C 183.274 174.096,195.281 182.130,207.412 176.453 C 213.973 173.383,216.996 168.432,217.459 160.000 C 217.605 157.325,217.953 154.898,218.288 154.200 L 218.865 153.000 217.889 154.177 C 217.031 155.211,216.882 155.889,216.653 159.777 C 216.000 170.869,209.855 177.200,199.742 177.200 C 190.168 177.200,183.922 170.497,183.321 159.578 C 183.117 155.880,182.967 155.209,182.112 154.178 L 181.135 153.000 181.713 154.200 M153.600 249.800 C 153.600 250.106,153.974 250.217,154.600 250.098 C 155.150 249.993,155.600 249.859,155.600 249.800 C 155.600 249.741,155.150 249.607,154.600 249.502 C 153.974 249.383,153.600 249.494,153.600 249.800 M245.421 249.561 C 244.678 249.852,244.683 249.876,245.521 250.095 C 246.119 250.252,246.400 250.145,246.400 249.763 C 246.400 249.453,246.355 249.213,246.300 249.228 C 246.245 249.244,245.850 249.393,245.421 249.561 M146.562 330.493 C 146.103 331.031,146.052 331.192,146.434 330.899 C 146.908 330.535,151.322 330.407,163.948 330.391 C 174.665 330.378,180.742 330.230,180.591 329.985 C 180.444 329.748,173.996 329.600,163.838 329.600 L 147.324 329.600 146.562 330.493 M220.200 330.000 C 220.860 330.168,228.335 330.327,236.811 330.353 C 250.139 330.394,252.356 330.486,253.211 331.034 C 254.078 331.589,254.061 331.540,253.078 330.634 L 251.955 329.600 235.478 329.647 C 226.415 329.673,219.540 329.832,220.200 330.000 M160.482 374.384 C 158.357 374.718,154.020 376.375,154.007 376.858 C 153.998 377.187,156.083 376.659,158.400 375.745 C 161.170 374.653,174.128 374.676,177.101 375.779 C 178.733 376.385,179.308 376.452,179.681 376.079 C 180.053 375.707,179.959 375.600,179.260 375.600 C 178.765 375.600,177.784 375.298,177.080 374.930 C 175.612 374.161,164.271 373.788,160.482 374.384 M224.119 374.400 C 223.194 374.594,222.081 374.943,221.645 375.176 C 221.209 375.409,220.436 375.605,219.926 375.612 C 219.054 375.624,219.045 375.650,219.764 376.068 C 220.355 376.411,220.991 376.340,222.564 375.756 C 225.779 374.562,238.040 374.663,241.386 375.910 C 243.887 376.843,244.803 377.001,244.796 376.500 C 244.774 374.815,229.535 373.268,224.119 374.400 " stroke="none" fill="#9caab1" fill-rule="evenodd"></path><path id="path5" d="M197.400 37.858 C 196.960 37.970,195.160 38.403,193.400 38.820 C 189.395 39.768,185.976 41.102,182.101 43.228 C 179.340 44.744,178.675 44.929,174.242 45.416 C 167.402 46.169,166.135 46.603,161.604 49.752 C 152.453 56.112,148.432 64.792,148.427 78.200 C 148.426 83.769,149.047 89.866,149.957 93.200 C 150.883 96.592,151.268 97.611,151.844 98.187 C 152.181 98.524,152.348 98.800,152.214 98.800 C 151.692 98.800,152.926 100.696,155.836 104.365 L 157.073 105.923 157.736 104.800 C 158.223 103.976,158.400 102.710,158.400 100.046 L 158.400 96.415 159.500 96.198 C 170.925 93.943,176.707 87.996,180.627 74.468 C 181.162 72.621,181.600 70.771,181.600 70.355 C 181.600 68.629,182.699 69.777,183.537 72.379 C 187.978 86.166,206.008 94.619,233.863 95.974 C 242.375 96.387,241.600 95.737,241.600 102.462 C 241.600 107.505,241.685 108.195,242.431 109.243 L 243.261 110.410 244.220 108.705 C 249.578 99.175,251.405 92.718,251.377 83.400 C 251.360 77.515,250.922 72.923,250.343 72.565 C 250.155 72.448,250.000 71.928,250.000 71.408 C 250.000 67.668,242.300 52.733,240.983 53.919 C 240.812 54.074,240.802 53.974,240.960 53.699 C 241.291 53.125,234.153 45.858,233.597 46.202 C 233.409 46.318,233.142 46.230,233.004 46.007 C 232.866 45.783,232.470 45.600,232.125 45.600 C 231.779 45.600,228.823 44.330,225.555 42.779 C 216.515 38.486,203.714 36.249,197.400 37.858 M123.081 102.562 C 123.477 103.091,124.160 103.742,124.600 104.010 C 125.040 104.278,124.780 103.845,124.022 103.048 C 122.431 101.377,122.048 101.179,123.081 102.562 M275.385 103.675 C 273.973 105.151,273.812 105.411,274.825 104.575 C 276.114 103.513,277.836 101.600,277.504 101.600 C 277.430 101.600,276.477 102.534,275.385 103.675 M176.303 104.500 C 175.785 104.995,175.643 105.184,175.989 104.921 C 176.334 104.658,177.063 104.264,177.608 104.046 C 178.268 103.783,178.373 103.642,177.922 103.625 C 177.550 103.611,176.821 104.005,176.303 104.500 M181.097 104.195 C 183.869 105.400,184.343 109.367,181.956 111.376 C 180.114 112.925,177.918 112.798,176.160 111.040 C 174.725 109.605,174.342 109.612,175.509 111.053 C 178.804 115.121,185.588 111.199,183.592 106.380 C 183.025 105.011,181.410 103.592,180.446 103.616 C 180.091 103.624,180.383 103.885,181.097 104.195 M222.747 104.316 C 223.481 104.709,224.327 105.474,224.627 106.016 C 224.926 106.557,225.178 106.757,225.186 106.460 C 225.205 105.732,222.878 103.600,222.064 103.600 C 221.706 103.600,222.013 103.922,222.747 104.316 M217.408 104.955 C 214.541 107.822,216.682 112.600,220.833 112.600 C 222.479 112.600,222.954 112.415,223.891 111.411 C 224.931 110.297,224.935 110.279,223.957 111.127 C 219.664 114.852,213.856 109.053,217.864 105.045 C 218.439 104.470,218.786 104.000,218.636 104.000 C 218.486 104.000,217.934 104.430,217.408 104.955 M174.649 106.615 C 174.512 106.973,174.421 107.746,174.446 108.333 C 174.480 109.132,174.570 108.998,174.804 107.800 C 175.135 106.100,175.062 105.540,174.649 106.615 M191.747 120.995 C 191.340 122.053,191.975 124.246,193.163 125.885 C 197.311 131.612,208.024 129.063,208.164 122.316 L 208.200 120.600 200.091 120.492 C 193.118 120.399,191.948 120.469,191.747 120.995 M207.861 121.415 C 208.922 124.179,204.003 128.800,200.000 128.800 C 195.997 128.800,191.078 124.179,192.139 121.415 C 192.493 120.492,207.507 120.492,207.861 121.415 M183.806 137.346 C 183.150 137.826,183.119 138.039,183.556 139.094 C 187.288 148.104,212.712 148.104,216.444 139.094 C 217.383 136.826,217.194 136.800,200.000 136.800 C 187.575 136.800,184.407 136.907,183.806 137.346 M216.000 138.462 C 216.000 140.914,211.287 144.019,206.400 144.786 C 195.551 146.489,184.000 143.228,184.000 138.462 L 184.000 137.600 200.000 137.600 L 216.000 137.600 216.000 138.462 M117.400 146.800 C 117.741 147.460,118.111 148.000,118.221 148.000 C 118.331 148.000,118.141 147.460,117.800 146.800 C 117.459 146.140,117.089 145.600,116.979 145.600 C 116.869 145.600,117.059 146.140,117.400 146.800 M175.089 147.630 C 175.578 148.139,176.078 148.455,176.201 148.332 C 176.324 148.209,175.924 147.792,175.312 147.406 L 174.200 146.704 175.089 147.630 M119.213 149.856 C 119.231 150.344,120.357 151.776,120.561 151.571 C 120.655 151.477,120.387 150.975,119.966 150.456 C 119.545 149.936,119.206 149.666,119.213 149.856 M215.600 345.600 C 215.600 346.040,215.780 346.400,216.000 346.400 C 216.220 346.400,216.400 346.040,216.400 345.600 C 216.400 345.160,216.220 344.800,216.000 344.800 C 215.780 344.800,215.600 345.160,215.600 345.600 " stroke="none" fill="#fbab34" fill-rule="evenodd"></path></g></svg>